<svg width="243" height="211" viewBox="0 0 243 211" fill="none" xmlns="http://www.w3.org/2000/svg">
<g clip-path="url(#clip0)">
<path d="M139.625 127.127L111.493 135.517L116.647 152.812L144.779 144.422L139.625 127.127Z" fill="url(#paint0_linear)"/>
<path d="M139.144 127.736L111.965 135.842L116.776 151.984L143.954 143.879L139.144 127.736Z" fill="white"/>
<g opacity="0.6">
<path opacity="0.6" d="M114.288 139.249L117.747 138.217L116.984 135.657L113.525 136.689L114.288 139.249Z" fill="#009EFF"/>
<path opacity="0.6" d="M118.61 143.382L131.886 139.423L131.639 138.593L118.362 142.552L118.61 143.382Z" fill="#009EFF"/>
<path opacity="0.6" d="M122.743 144.108L132.423 141.221L132.258 140.667L122.578 143.554L122.743 144.108Z" fill="#009EFF"/>
</g>
<path d="M183.466 86.1269L180.017 103.841L208.831 109.454L212.28 91.7402L183.466 86.1269Z" fill="url(#paint1_linear)"/>
<path d="M183.28 86.9068L180.08 103.414L207.874 108.805L211.073 92.2972L183.28 86.9068Z" fill="white"/>
<g opacity="0.6">
<path opacity="0.6" d="M184.181 90.7535L187.724 91.4437L188.234 88.8215L184.692 88.1314L184.181 90.7535Z" fill="#009EFF"/>
<path opacity="0.6" d="M186.093 96.42L199.691 99.0691L199.857 98.2189L186.259 95.5697L186.093 96.42Z" fill="#009EFF"/>
<path opacity="0.6" d="M189.419 98.9821L199.334 100.914L199.445 100.347L189.529 98.4153L189.419 98.9821Z" fill="#009EFF"/>
</g>
<path d="M201.384 121.099L184.834 128.28L196.516 155.221L213.066 148.039L201.384 121.099Z" fill="url(#paint2_linear)"/>
<path d="M201.117 121.609L185.669 128.312L196.955 154.34L212.403 147.637L201.117 121.609Z" fill="white"/>
<g opacity="0.6">
<path opacity="0.6" d="M197.97 124.313L199.407 127.625L201.857 126.562L200.42 123.25L197.97 124.313Z" fill="#47E6B1"/>
<path opacity="0.6" d="M194.383 129.098L199.896 141.812L200.691 141.468L195.177 128.753L194.383 129.098Z" fill="#47E6B1"/>
<path opacity="0.6" d="M194.153 133.29L198.173 142.56L198.702 142.33L194.682 133.06L194.153 133.29Z" fill="#47E6B1"/>
</g>
<path d="M121.003 42.0542L92.8706 50.4438L98.0245 67.7384L126.156 59.3489L121.003 42.0542Z" fill="url(#paint3_linear)"/>
<path d="M120.521 42.666L93.3428 50.7712L98.1532 66.9134L125.332 58.8082L120.521 42.666Z" fill="white"/>
<g opacity="0.6">
<path opacity="0.6" d="M95.6504 54.1836L99.1091 53.1521L98.3462 50.592L94.8875 51.6235L95.6504 54.1836Z" fill="#F55F44"/>
<path opacity="0.6" d="M99.9743 58.3162L113.251 54.3569L113.003 53.5268L99.7269 57.4861L99.9743 58.3162Z" fill="#F55F44"/>
<path opacity="0.6" d="M104.105 59.0425L113.785 56.1555L113.62 55.6021L103.94 58.4891L104.105 59.0425Z" fill="#F55F44"/>
</g>
<path d="M164.836 1.05783L161.388 18.7719L190.202 24.3852L193.65 6.67119L164.836 1.05783Z" fill="url(#paint4_linear)"/>
<path d="M165.104 1.56896L161.886 18.1026L189.723 23.5257L192.942 6.9921L165.104 1.56896Z" fill="white"/>
<g opacity="0.6">
<path opacity="0.6" d="M165.551 5.68635L169.093 6.3765L169.604 3.75434L166.061 3.06419L165.551 5.68635Z" fill="#009EFF"/>
<path opacity="0.6" d="M167.463 11.3527L181.062 14.0019L181.227 13.1517L167.629 10.5025L167.463 11.3527Z" fill="#009EFF"/>
<path opacity="0.6" d="M170.789 13.9127L180.705 15.8444L180.815 15.2776L170.899 13.3459L170.789 13.9127Z" fill="#009EFF"/>
</g>
<path d="M182.752 36.0319L166.202 43.2136L177.884 70.1542L194.434 62.9725L182.752 36.0319Z" fill="url(#paint5_linear)"/>
<path d="M182.487 36.5411L167.039 43.2443L178.325 69.2719L193.773 62.5688L182.487 36.5411Z" fill="white"/>
<g opacity="0.6">
<path opacity="0.6" d="M179.342 39.2463L180.778 42.5585L183.228 41.4954L181.791 38.1832L179.342 39.2463Z" fill="#47E6B1"/>
<path opacity="0.6" d="M175.751 44.0316L181.265 56.7458L182.059 56.4011L176.546 43.6869L175.751 44.0316Z" fill="#47E6B1"/>
<path opacity="0.6" d="M175.522 48.2256L179.542 57.4964L180.072 57.2666L176.052 47.9958L175.522 48.2256Z" fill="#47E6B1"/>
</g>
<path d="M41.9674 106.077L13.8354 114.466L18.9893 131.761L47.1213 123.371L41.9674 106.077Z" fill="url(#paint6_linear)"/>
<path d="M41.4889 106.688L14.3103 114.793L19.1208 130.935L46.2994 122.83L41.4889 106.688Z" fill="white"/>
<g opacity="0.6">
<path opacity="0.6" d="M16.6311 118.216L20.0898 117.185L19.3269 114.625L15.8682 115.656L16.6311 118.216Z" fill="#009EFF"/>
<path opacity="0.6" d="M20.955 122.349L34.2314 118.389L33.9841 117.559L20.7076 121.519L20.955 122.349Z" fill="#009EFF"/>
<path opacity="0.6" d="M25.088 123.074L34.7688 120.187L34.6039 119.634L24.9231 122.521L25.088 123.074Z" fill="#009EFF"/>
</g>
<path d="M85.8098 65.0852L82.3613 82.7992L111.175 88.4126L114.624 70.6985L85.8098 65.0852Z" fill="url(#paint7_linear)"/>
<path d="M85.7691 65.7368L82.5698 82.2442L110.363 87.6347L113.562 71.1273L85.7691 65.7368Z" fill="white"/>
<g opacity="0.6">
<path opacity="0.6" d="M86.5218 69.7108L90.0645 70.4009L90.5749 67.7788L87.0323 67.0886L86.5218 69.7108Z" fill="#F55F44"/>
<path opacity="0.6" d="M88.4368 75.3777L102.035 78.0269L102.201 77.1767L88.6023 74.5275L88.4368 75.3777Z" fill="#F55F44"/>
<path opacity="0.6" d="M91.7622 77.9399L101.678 79.8716L101.788 79.3047L91.8726 77.3731L91.7622 77.9399Z" fill="#F55F44"/>
</g>
<path d="M103.727 100.058L87.1765 107.24L98.8584 134.18L115.409 126.998L103.727 100.058Z" fill="url(#paint8_linear)"/>
<path d="M103.461 100.567L88.0139 107.27L99.3 133.298L114.747 126.595L103.461 100.567Z" fill="white"/>
<g opacity="0.6">
<path opacity="0.6" d="M100.314 103.272L101.75 106.585L104.2 105.521L102.764 102.209L100.314 103.272Z" fill="#47E6B1"/>
<path opacity="0.6" d="M96.7266 108.055L102.24 120.769L103.034 120.424L97.521 107.71L96.7266 108.055Z" fill="#47E6B1"/>
<path opacity="0.6" d="M96.4971 112.248L100.517 121.518L101.047 121.289L97.0267 112.018L96.4971 112.248Z" fill="#47E6B1"/>
</g>
<path d="M45.2774 55.2754L17.1455 63.6649L22.2994 80.9596L50.4313 72.5701L45.2774 55.2754Z" fill="url(#paint9_linear)"/>
<path d="M45.3014 55.6143L18.0752 63.8419L22.9583 80.0124L50.1844 71.7848L45.3014 55.6143Z" fill="white"/>
<g opacity="0.6">
<path opacity="0.6" d="M19.9331 67.4159L23.3918 66.3844L22.6289 63.8243L19.1702 64.8558L19.9331 67.4159Z" fill="#009EFF"/>
<path opacity="0.6" d="M24.2543 71.5493L37.5308 67.59L37.2834 66.7599L24.0069 70.7192L24.2543 71.5493Z" fill="#009EFF"/>
<path opacity="0.6" d="M28.3874 72.2748L38.0681 69.3878L37.9032 68.8344L28.2225 71.7214L28.3874 72.2748Z" fill="#009EFF"/>
</g>
<path d="M88.881 14.4938L85.4534 32.1797L114.222 37.7592L117.649 20.0733L88.881 14.4938Z" fill="url(#paint10_linear)"/>
<path d="M89.3832 14.7959L86.1646 31.3295L114.002 36.7526L117.221 20.219L89.3832 14.7959Z" fill="white"/>
<g opacity="0.6">
<path opacity="0.6" d="M89.8299 18.9131L93.3726 19.6032L93.883 16.9811L90.3404 16.2909L89.8299 18.9131Z" fill="#009EFF"/>
<path opacity="0.6" d="M91.7427 24.5767L105.341 27.2259L105.507 26.3757L91.9082 23.7265L91.7427 24.5767Z" fill="#009EFF"/>
<path opacity="0.6" d="M95.0655 27.1389L104.981 29.0706L105.091 28.5038L95.1758 26.5721L95.0655 27.1389Z" fill="#F55F44"/>
</g>
<path d="M107.033 49.2592L90.4827 56.4409L102.165 83.3815L118.715 76.1998L107.033 49.2592Z" fill="url(#paint11_linear)"/>
<path d="M106.765 49.7696L91.3176 56.4727L102.604 82.5004L118.051 75.7972L106.765 49.7696Z" fill="white"/>
<g opacity="0.6">
<path opacity="0.6" d="M103.622 52.4732L105.059 55.7855L107.508 54.7224L106.072 51.4101L103.622 52.4732Z" fill="#47E6B1"/>
<path opacity="0.6" d="M100.032 57.2586L105.545 69.9728L106.34 69.6281L100.826 56.9139L100.032 57.2586Z" fill="#47E6B1"/>
<path opacity="0.6" d="M99.8042 61.4462L103.824 70.7169L104.354 70.4872L100.334 61.2164L99.8042 61.4462Z" fill="#47E6B1"/>
</g>
<path opacity="0.25" d="M17.9058 18.7055C18.7524 18.7055 19.4386 18.019 19.4386 17.1722C19.4386 16.3254 18.7524 15.6389 17.9058 15.6389C17.0593 15.6389 16.373 16.3254 16.373 17.1722C16.373 18.019 17.0593 18.7055 17.9058 18.7055Z" fill="#535461"/>
<path opacity="0.25" d="M177.926 153.005C178.772 153.005 179.458 152.319 179.458 151.472C179.458 150.625 178.772 149.939 177.926 149.939C177.079 149.939 176.393 150.625 176.393 151.472C176.393 152.319 177.079 153.005 177.926 153.005Z" fill="#535461"/>
<path opacity="0.25" d="M42.534 145.381C43.3805 145.381 44.0668 144.694 44.0668 143.847C44.0668 143 43.3805 142.314 42.534 142.314C41.6875 142.314 41.0012 143 41.0012 143.847C41.0012 144.694 41.6875 145.381 42.534 145.381Z" fill="#535461"/>
<path opacity="0.25" d="M192.175 124.037C193.021 124.037 193.707 123.351 193.707 122.504C193.707 121.657 193.021 120.971 192.175 120.971C191.328 120.971 190.642 121.657 190.642 122.504C190.642 123.351 191.328 124.037 192.175 124.037Z" fill="#535461"/>
<path opacity="0.25" d="M206.597 53.7003C207.444 53.7003 208.13 53.0138 208.13 52.1669C208.13 51.3201 207.444 50.6336 206.597 50.6336C205.751 50.6336 205.064 51.3201 205.064 52.1669C205.064 53.0138 205.751 53.7003 206.597 53.7003Z" fill="#535461"/>
<path opacity="0.25" d="M93.4351 1.36514H92.0733V0H91.5157V1.36514H90.1538V1.92017H91.5157V3.28251H92.0733V1.92017H93.4351V1.36514Z" fill="#535461"/>
<path opacity="0.25" d="M40.9927 22.2571H39.6309V20.8948H39.0733V22.2571H37.7114V22.815H39.0733V24.1773H39.6309V22.815H40.9927V22.2571Z" fill="#535461"/>
<path opacity="0.25" d="M19.66 100.11H18.2981V98.7472H17.7405V100.11H16.3787V100.667H17.7405V102.03H18.2981V100.667H19.66V100.11Z" fill="#535461"/>
<path opacity="0.25" d="M16.5971 44.59H15.2325V43.2248H14.6776V44.59H13.313V45.145H14.6776V46.5101H15.2325V45.145H16.5971V44.59Z" fill="#535461"/>
<path opacity="0.25" d="M3.28132 82.7411H1.91948V81.3759H1.36465V82.7411H0V83.2961H1.36465V84.6585H1.91948V83.2961H3.28132V82.7411Z" fill="#535461"/>
<path opacity="0.25" d="M243 63.0685H241.638V61.7061H241.081V63.0685H239.719V63.6263H241.081V64.9886H241.638V63.6263H243V63.0685Z" fill="#535461"/>
<path opacity="0.25" d="M195.523 80.8041H194.161V79.439H193.604V80.8041H192.242V81.3591H193.604V82.7243H194.161V81.3591H195.523V80.8041Z" fill="#535461"/>
<path opacity="0.25" d="M154.982 32.9709H153.617V31.6085H153.062V32.9709H151.698V33.5287H153.062V34.891H153.617V33.5287H154.982V32.9709Z" fill="#535461"/>
<path d="M76.751 110.933C75.7702 114.117 77.2414 117.882 80.1136 119.558C81.3157 120.259 82.7028 120.615 83.8713 121.374C86.4072 123.025 87.4076 126.193 88.2314 129.105C89.1757 132.455 90.1257 135.996 89.2598 139.365C88.6994 141.512 87.4524 143.413 86.7379 145.515C86.141 147.275 85.9336 149.144 86.1298 150.993C86.2335 151.974 86.4801 152.994 87.1498 153.717C88.1193 154.763 89.6717 154.92 91.0728 155.172C94.0402 155.736 96.8317 156.995 99.2184 158.847C101.605 160.698 103.519 163.089 104.803 165.824" stroke="url(#paint12_linear)" stroke-width="2" stroke-miterlimit="10"/>
<path d="M77.0508 110.933C76.07 114.117 77.5412 117.882 80.4134 119.558C81.6155 120.259 83.0026 120.615 84.1711 121.374C86.707 123.025 87.7074 126.193 88.5312 129.105C89.4755 132.455 90.4255 135.996 89.5596 139.365C88.9992 141.512 87.7522 143.413 87.0377 145.515C86.4408 147.275 86.2334 149.144 86.4296 150.993C86.5333 151.974 86.7799 152.994 87.4496 153.717C88.4191 154.763 89.9715 154.92 91.3726 155.172C94.3399 155.736 97.1315 156.995 99.5182 158.847C101.905 160.698 103.819 163.089 105.103 165.824" stroke="#535461" stroke-width="2" stroke-miterlimit="10"/>
<path d="M114.171 87.1393C111.753 90.5031 109.242 94.1472 109.035 98.2874C108.718 104.659 113.798 109.87 116.088 115.83C117.072 118.454 117.518 121.251 117.397 124.051C117.277 126.852 116.593 129.6 115.387 132.13C114.266 134.426 112.694 136.705 112.888 139.247C113.005 140.8 113.781 142.21 114.406 143.637C115.94 147.213 116.609 151.099 116.36 154.982C116.111 158.865 114.95 162.634 112.972 165.984" stroke="url(#paint13_linear)" stroke-width="2" stroke-miterlimit="10"/>
<path d="M114.471 87.1393C112.053 90.5031 109.542 94.1472 109.334 98.2874C109.018 104.659 114.098 109.87 116.387 115.83C117.373 118.454 117.819 121.25 117.699 124.051C117.579 126.852 116.895 129.6 115.69 132.13C114.569 134.426 112.997 136.705 113.19 139.247C113.308 140.8 114.084 142.21 114.709 143.637C116.243 147.213 116.912 151.099 116.663 154.982C116.413 158.865 115.252 162.634 113.274 165.984" stroke="#535461" stroke-width="2" stroke-miterlimit="10"/>
<path d="M148.122 117.486L149.29 127.017C149.444 128.284 149.57 129.666 148.898 130.745C148.253 131.768 147.046 132.256 146.096 133.013C143.013 135.494 143.294 140.259 144.347 144.08C145.401 147.901 146.948 152.005 145.468 155.68C144.857 157.196 143.787 158.483 142.971 159.884C141.605 162.318 141.063 165.128 141.427 167.896" stroke="url(#paint14_linear)" stroke-width="2" stroke-miterlimit="10"/>
<path d="M148.402 117.486L149.571 127.017C149.725 128.284 149.851 129.666 149.178 130.745C148.534 131.768 147.326 132.256 146.376 133.013C143.294 135.494 143.574 140.259 144.628 144.08C145.681 147.901 147.228 152.005 145.748 155.68C145.138 157.196 144.067 158.483 143.252 159.884C141.885 162.318 141.343 165.128 141.708 167.896" stroke="#535461" stroke-width="2" stroke-miterlimit="10"/>
<g opacity="0.7">
<path opacity="0.7" d="M178.447 78.2785C178.443 73.8176 177.385 69.4209 175.358 65.4473C173.332 61.4737 170.395 58.036 166.786 55.4149C163.178 52.7938 159.001 51.0636 154.597 50.3656C150.193 49.6677 145.686 50.0217 141.444 51.3989C141.678 49.8098 141.799 48.2061 141.806 46.5999C141.851 39.249 139.032 32.1695 133.947 26.8632C128.861 21.5569 121.909 18.4411 114.566 18.1768C107.222 17.9124 100.064 20.5202 94.6107 25.4471C89.1571 30.374 85.8366 37.2324 85.3536 44.5676C81.1116 43.1878 76.6034 42.8316 72.1975 43.5281C67.7916 44.2246 63.6129 45.9541 60.0029 48.5752C56.393 51.1963 53.4541 54.6347 51.4266 58.6093C49.3991 62.584 48.3405 66.9821 48.3372 71.4443C48.3372 85.6284 58.778 105.803 72.3937 109.377L74.5093 110.588L73.3604 114.529H80.1696L78.6901 110.582L80.7973 109.377C91.3166 106.616 99.9388 93.9454 103.318 81.7824C105.167 83.0157 107.202 83.9423 109.346 84.5267L111.461 85.7377L110.312 89.6789H117.122L115.642 85.7321L117.749 84.5267C119.313 84.1058 120.819 83.4939 122.233 82.7047C124.051 96.3421 133.722 112.996 145.978 116.211L148.094 117.422L146.945 121.363H153.754L152.275 117.416L154.382 116.211C168.017 112.637 178.447 92.4625 178.447 78.2785Z" fill="url(#paint15_linear)"/>
</g>
<path d="M81.2429 113.083H74.655L75.8067 109.127H79.7605L81.2429 113.083Z" fill="#F55F44"/>
<path d="M105.128 71.3939C105.128 86.5002 92.8859 108.634 77.7851 108.634C62.6843 108.634 50.4417 86.489 50.4417 71.3939C50.4417 64.1393 53.3225 57.1819 58.4503 52.0522C63.5782 46.9224 70.5331 44.0406 77.7851 44.0406C85.037 44.0406 91.9919 46.9224 97.1198 52.0522C102.248 57.1819 105.128 64.1393 105.128 71.3939Z" fill="#F55F44"/>
<path d="M79.7605 109.293H75.8067L73.5005 107.975H82.0667L79.7605 109.293Z" fill="#535461"/>
<path opacity="0.1" d="M67.9018 50.1375C67.9018 50.1375 56.3709 56.3997 54.7317 68.9187L67.9018 50.1375Z" fill="white"/>
<path d="M117.001 89.037H110.413L111.565 85.0817H115.519L117.001 89.037Z" fill="#4D8AF0"/>
<path d="M140.887 47.3455C140.887 62.4518 128.644 84.5856 113.543 84.5856C98.4425 84.5856 86.1943 62.4546 86.1943 47.3455C86.1943 40.0909 89.0751 33.1335 94.203 28.0038C99.3309 22.874 106.286 19.9922 113.538 19.9922C120.79 19.9922 127.745 22.874 132.872 28.0038C138 33.1335 140.881 40.0909 140.881 47.3455H140.887Z" fill="#4D8AF0"/>
<path d="M115.519 85.2471H111.565L109.259 83.9268H117.825L115.519 85.2471Z" fill="#535461"/>
<path opacity="0.1" d="M103.66 26.0891C103.66 26.0891 92.1292 32.3514 90.49 44.8703L103.66 26.0891Z" fill="white"/>
<path d="M152.46 119.695H145.869L147.023 115.743H150.974L152.46 119.695Z" fill="#3AD29F"/>
<path d="M176.345 78.0065C176.345 93.1128 164.102 115.247 149.002 115.247C133.901 115.247 121.658 93.1016 121.658 78.0065C121.658 70.752 124.539 63.7946 129.667 58.6648C134.795 53.5351 141.75 50.6532 149.002 50.6532C156.254 50.6532 163.208 53.5351 168.336 58.6648C173.464 63.7946 176.345 70.752 176.345 78.0065Z" fill="#3AD29F"/>
<path d="M150.975 115.905H147.023L144.717 114.588H153.281L150.975 115.905Z" fill="#535461"/>
<path opacity="0.1" d="M139.116 56.7501C139.116 56.7501 127.585 63.0124 125.946 75.5313L139.116 56.7501Z" fill="white"/>
<path d="M158.368 161.172L82.7495 164.954L85.0732 211.445L160.692 207.662L158.368 161.172Z" fill="url(#paint16_linear)"/>
<path d="M156.729 161.94L83.7695 165.676L85.9865 209.006L158.946 205.271L156.729 161.94Z" fill="#EEEEEE"/>
<path d="M87.4366 175.695L96.7192 175.219L96.3676 168.346L87.085 168.822L87.4366 175.695Z" fill="#009EFF"/>
<path d="M95.734 188.678L131.378 186.853L131.264 184.624L95.62 186.449L95.734 188.678Z" fill="#009EFF"/>
<path d="M105.631 193.012L131.624 191.681L131.548 190.195L105.555 191.526L105.631 193.012Z" fill="#009EFF"/>
</g>
<defs>
<linearGradient id="paint0_linear" x1="130.713" y1="148.617" x2="125.555" y2="131.323" gradientUnits="userSpaceOnUse">
<stop stop-color="#808080" stop-opacity="0.25"/>
<stop offset="0.54" stop-color="#808080" stop-opacity="0.12"/>
<stop offset="1" stop-color="#808080" stop-opacity="0.1"/>
</linearGradient>
<linearGradient id="paint1_linear" x1="1476.95" y1="10279" x2="1838.46" y2="8423.33" gradientUnits="userSpaceOnUse">
<stop stop-color="#808080" stop-opacity="0.25"/>
<stop offset="0.54" stop-color="#808080" stop-opacity="0.12"/>
<stop offset="1" stop-color="#808080" stop-opacity="0.1"/>
</linearGradient>
<linearGradient id="paint2_linear" x1="-10363.1" y1="9227.63" x2="-8629.07" y2="8475.74" gradientUnits="userSpaceOnUse">
<stop stop-color="#808080" stop-opacity="0.25"/>
<stop offset="0.54" stop-color="#808080" stop-opacity="0.12"/>
<stop offset="1" stop-color="#808080" stop-opacity="0.1"/>
</linearGradient>
<linearGradient id="paint3_linear" x1="1947.49" y1="5204.98" x2="1615.46" y2="4091.62" gradientUnits="userSpaceOnUse">
<stop stop-color="#808080" stop-opacity="0.25"/>
<stop offset="0.54" stop-color="#808080" stop-opacity="0.12"/>
<stop offset="1" stop-color="#808080" stop-opacity="0.1"/>
</linearGradient>
<linearGradient id="paint4_linear" x1="929.03" y1="1553.98" x2="1290.54" y2="-301.688" gradientUnits="userSpaceOnUse">
<stop stop-color="#808080" stop-opacity="0.25"/>
<stop offset="0.54" stop-color="#808080" stop-opacity="0.12"/>
<stop offset="1" stop-color="#808080" stop-opacity="0.1"/>
</linearGradient>
<linearGradient id="paint5_linear" x1="-10856.9" y1="3465.17" x2="-9122.88" y2="2713.28" gradientUnits="userSpaceOnUse">
<stop stop-color="#808080" stop-opacity="0.25"/>
<stop offset="0.54" stop-color="#808080" stop-opacity="0.12"/>
<stop offset="1" stop-color="#808080" stop-opacity="0.1"/>
</linearGradient>
<linearGradient id="paint6_linear" x1="-6684.85" y1="10450.4" x2="-7016.93" y2="9336.84" gradientUnits="userSpaceOnUse">
<stop stop-color="#808080" stop-opacity="0.25"/>
<stop offset="0.54" stop-color="#808080" stop-opacity="0.12"/>
<stop offset="1" stop-color="#808080" stop-opacity="0.1"/>
</linearGradient>
<linearGradient id="paint7_linear" x1="-4694.91" y1="8844" x2="-4333.4" y2="6988.33" gradientUnits="userSpaceOnUse">
<stop stop-color="#808080" stop-opacity="0.25"/>
<stop offset="0.54" stop-color="#808080" stop-opacity="0.12"/>
<stop offset="1" stop-color="#808080" stop-opacity="0.1"/>
</linearGradient>
<linearGradient id="paint8_linear" x1="-19601" y1="9260.15" x2="-17867" y2="8508.25" gradientUnits="userSpaceOnUse">
<stop stop-color="#808080" stop-opacity="0.25"/>
<stop offset="0.54" stop-color="#808080" stop-opacity="0.12"/>
<stop offset="1" stop-color="#808080" stop-opacity="0.1"/>
</linearGradient>
<linearGradient id="paint9_linear" x1="-5805.4" y1="6928.05" x2="-6137.43" y2="5814.69" gradientUnits="userSpaceOnUse">
<stop stop-color="#808080" stop-opacity="0.25"/>
<stop offset="0.54" stop-color="#808080" stop-opacity="0.12"/>
<stop offset="1" stop-color="#808080" stop-opacity="0.1"/>
</linearGradient>
<linearGradient id="paint10_linear" x1="-4076.13" y1="3519.01" x2="-3716.8" y2="1666.29" gradientUnits="userSpaceOnUse">
<stop stop-color="#808080" stop-opacity="0.25"/>
<stop offset="0.54" stop-color="#808080" stop-opacity="0.12"/>
<stop offset="1" stop-color="#808080" stop-opacity="0.1"/>
</linearGradient>
<linearGradient id="paint11_linear" x1="-18482.1" y1="5592.65" x2="-16748.1" y2="4840.75" gradientUnits="userSpaceOnUse">
<stop stop-color="#808080" stop-opacity="0.25"/>
<stop offset="0.54" stop-color="#808080" stop-opacity="0.12"/>
<stop offset="1" stop-color="#808080" stop-opacity="0.1"/>
</linearGradient>
<linearGradient id="paint12_linear" x1="12502.4" y1="31252.6" x2="15428.2" y2="31252.6" gradientUnits="userSpaceOnUse">
<stop stop-color="#808080" stop-opacity="0.25"/>
<stop offset="0.54" stop-color="#808080" stop-opacity="0.12"/>
<stop offset="1" stop-color="#808080" stop-opacity="0.1"/>
</linearGradient>
<linearGradient id="paint13_linear" x1="4764.35" y1="41490.1" x2="5032.77" y2="41490.1" gradientUnits="userSpaceOnUse">
<stop stop-color="#808080" stop-opacity="0.25"/>
<stop offset="0.54" stop-color="#808080" stop-opacity="0.12"/>
<stop offset="1" stop-color="#808080" stop-opacity="0.1"/>
</linearGradient>
<linearGradient id="paint14_linear" x1="5562.85" y1="29491.5" x2="5813" y2="29491.5" gradientUnits="userSpaceOnUse">
<stop stop-color="#808080" stop-opacity="0.25"/>
<stop offset="0.54" stop-color="#808080" stop-opacity="0.12"/>
<stop offset="1" stop-color="#808080" stop-opacity="0.1"/>
</linearGradient>
<linearGradient id="paint15_linear" x1="74348.7" y1="52300.6" x2="74348.7" y2="14365.7" gradientUnits="userSpaceOnUse">
<stop stop-color="#808080" stop-opacity="0.25"/>
<stop offset="0.54" stop-color="#808080" stop-opacity="0.12"/>
<stop offset="1" stop-color="#808080" stop-opacity="0.1"/>
</linearGradient>
<linearGradient id="paint16_linear" x1="371.943" y1="36733.1" x2="-13.718" y2="29022.6" gradientUnits="userSpaceOnUse">
<stop stop-color="#808080" stop-opacity="0.25"/>
<stop offset="0.54" stop-color="#808080" stop-opacity="0.12"/>
<stop offset="1" stop-color="#808080" stop-opacity="0.1"/>
</linearGradient>
<clipPath id="clip0">
<rect width="243" height="211" fill="white"/>
</clipPath>
</defs>
</svg>
