<svg width="602" height="583" viewBox="0 0 602 583" fill="none" xmlns="http://www.w3.org/2000/svg">
<g clip-path="url(#clip0)">
<g opacity="0.5">
<path opacity="0.5" d="M89.919 183.415C139.227 183.415 179.199 143.426 179.199 94.0967C179.199 44.7676 139.227 4.77844 89.919 4.77844C40.6113 4.77844 0.639404 44.7676 0.639404 94.0967C0.639404 143.426 40.6113 183.415 89.919 183.415Z" fill="url(#paint0_linear)"/>
</g>
<path d="M89.9191 181.041C138.184 181.041 177.311 141.897 177.311 93.6111C177.311 45.3249 138.184 6.18114 89.9191 6.18114C41.6537 6.18114 2.52686 45.3249 2.52686 93.6111C2.52686 141.897 41.6537 181.041 89.9191 181.041Z" fill="#F5F5F5"/>
<path d="M90.1656 181.288C107.243 181.316 123.951 176.314 138.207 166.906C134.986 149.303 122.73 148.293 122.73 148.293H55.1594C55.1594 148.293 43.6036 149.241 39.9828 165.442C54.6741 175.78 72.204 181.315 90.1656 181.288Z" fill="#009EFF"/>
<path d="M89.2488 130.444C110.646 130.444 127.991 113.09 127.991 91.6843C127.991 70.2781 110.646 52.925 89.2488 52.925C67.8519 52.925 50.5063 70.2781 50.5063 91.6843C50.5063 113.09 67.8519 130.444 89.2488 130.444Z" fill="#333333"/>
<path opacity="0.1" d="M75.6362 126.837H102.669V148.471C102.669 152.056 101.245 155.494 98.7112 158.03C96.1771 160.565 92.7401 161.989 89.1564 161.989C85.5726 161.989 82.1357 160.565 79.6016 158.03C77.0675 155.494 75.6439 152.056 75.6439 148.471V126.837H75.6362Z" fill="black"/>
<path d="M78.2169 125.835H100.088C100.773 125.835 101.429 126.107 101.913 126.591C102.397 127.075 102.669 127.732 102.669 128.417V147.469C102.669 151.054 101.245 154.492 98.7112 157.028C96.1771 159.563 92.7401 160.987 89.1564 160.987C85.5726 160.987 82.1357 159.563 79.6016 157.028C77.0675 154.492 75.6439 151.054 75.6439 147.469V128.417C75.6439 127.733 75.9147 127.078 76.397 126.594C76.8794 126.11 77.5338 125.837 78.2169 125.835Z" fill="#BE7C5E"/>
<path opacity="0.1" d="M75.6901 137.049C84.4021 140.306 93.9923 140.334 102.723 137.126V133.804H75.6901V137.049Z" fill="black"/>
<path d="M89.2488 138.86C110.646 138.86 127.991 121.507 127.991 100.101C127.991 78.6944 110.646 61.3412 89.2488 61.3412C67.8519 61.3412 50.5063 78.6944 50.5063 100.101C50.5063 121.507 67.8519 138.86 89.2488 138.86Z" fill="#BE7C5E"/>
<path d="M65.7753 84.1159C66.2298 82.4434 66.7999 80.6014 68.3021 79.7305C69.4885 79.0369 70.96 79.1448 72.3312 79.2141C83.0396 79.7999 93.6554 77.3567 104.071 74.8056C110.026 73.349 116.397 71.5763 120.249 66.7748C124.101 61.9732 119.078 46.8826 113.215 45.1023C109.364 43.9231 104.895 46.1196 101.244 44.3932C99.6182 43.6225 98.4241 42.1813 97.022 41.056C94.1485 38.7439 90.4583 37.8113 86.8838 36.9327C82.7083 35.8999 78.1938 34.8903 74.2264 36.5473C71.1448 37.8267 68.8953 40.5319 65.9756 42.135C60.4211 45.2179 53.6495 43.7844 47.2861 43.7689C45.1367 43.7689 42.5714 44.2005 41.7162 46.1736C41.1384 47.5146 41.6007 49.0406 41.6623 50.4973C41.8472 55.1216 38.0338 58.7208 34.8367 62.058C31.6396 65.3952 28.6197 70.1582 30.6381 74.3047C31.4085 75.8847 32.8183 77.0793 33.6195 78.6438C34.9985 81.3567 34.3052 84.6323 34.8059 87.6303C35.3073 89.9053 36.157 92.0891 37.3251 94.1044C39.6978 98.7287 51.6157 123.623 57.0931 117.295C59.7432 114.212 60.1746 105.303 61.2454 101.295C62.7246 95.5353 64.2345 89.8089 65.7753 84.1159Z" fill="#333333"/>
<path d="M61.6846 105.449C63.6758 105.449 65.2899 102.423 65.2899 98.6901C65.2899 94.9571 63.6758 91.9309 61.6846 91.9309C59.6934 91.9309 58.0792 94.9571 58.0792 98.6901C58.0792 102.423 59.6934 105.449 61.6846 105.449Z" fill="#BE7C5E"/>
<g opacity="0.5">
<path opacity="0.5" d="M296.659 377.812C345.967 377.812 385.939 337.823 385.939 288.494C385.939 239.165 345.967 199.176 296.659 199.176C247.351 199.176 207.379 239.165 207.379 288.494C207.379 337.823 247.351 377.812 296.659 377.812Z" fill="url(#paint1_linear)"/>
</g>
<path d="M296.828 375.354C345.094 375.354 384.221 336.21 384.221 287.924C384.221 239.638 345.094 200.494 296.828 200.494C248.563 200.494 209.436 239.638 209.436 287.924C209.436 336.21 248.563 375.354 296.828 375.354Z" fill="#F5F5F5"/>
<path d="M296.905 375.701C313.973 375.723 330.669 370.721 344.916 361.319C341.695 343.716 329.439 342.706 329.439 342.706H261.892C261.892 342.706 250.336 343.654 246.715 359.855C261.408 370.195 278.941 375.73 296.905 375.701Z" fill="#009EFF"/>
<path d="M295.981 328.286C319.28 328.286 338.167 309.391 338.167 286.082C338.167 262.773 319.28 243.877 295.981 243.877C272.682 243.877 253.795 262.773 253.795 286.082C253.795 309.391 272.682 328.286 295.981 328.286Z" fill="#F55F44"/>
<path opacity="0.1" d="M282.368 321.234H309.401V342.868C309.401 346.453 307.977 349.892 305.443 352.427C302.909 354.962 299.472 356.387 295.889 356.387C292.305 356.387 288.868 354.962 286.334 352.427C283.8 349.892 282.376 346.453 282.376 342.868V321.234H282.368Z" fill="black"/>
<path d="M284.949 320.232H306.82C307.159 320.232 307.495 320.299 307.808 320.429C308.121 320.559 308.405 320.749 308.645 320.988C308.885 321.228 309.075 321.513 309.205 321.826C309.334 322.139 309.401 322.475 309.401 322.814V341.866C309.401 343.641 309.051 345.399 308.372 347.039C307.693 348.68 306.698 350.17 305.443 351.425C304.189 352.68 302.699 353.676 301.06 354.356C299.42 355.035 297.663 355.385 295.888 355.385C294.114 355.385 292.357 355.035 290.717 354.356C289.078 353.676 287.588 352.68 286.334 351.425C285.079 350.17 284.084 348.68 283.405 347.039C282.725 345.399 282.376 343.641 282.376 341.866V322.814C282.376 322.129 282.648 321.473 283.132 320.988C283.616 320.504 284.272 320.232 284.957 320.232H284.949Z" fill="#FDA57D"/>
<path opacity="0.1" d="M282.422 331.446C291.134 334.704 300.725 334.731 309.455 331.523V328.201H282.422V331.446Z" fill="black"/>
<path d="M295.981 333.257C317.378 333.257 334.723 315.904 334.723 294.498C334.723 273.092 317.378 255.739 295.981 255.739C274.584 255.739 257.238 273.092 257.238 294.498C257.238 315.904 274.584 333.257 295.981 333.257Z" fill="#FDA57D"/>
<path d="M295.927 258.752C304.539 258.752 311.52 251.768 311.52 243.153C311.52 234.538 304.539 227.554 295.927 227.554C287.315 227.554 280.334 234.538 280.334 243.153C280.334 251.768 287.315 258.752 295.927 258.752Z" fill="#F55F44"/>
<path d="M295.927 238.035C301.582 238.035 306.165 233.45 306.165 227.793C306.165 222.136 301.582 217.55 295.927 217.55C290.273 217.55 285.689 222.136 285.689 227.793C285.689 233.45 290.273 238.035 295.927 238.035Z" fill="#F55F44"/>
<path d="M289.163 251.708C285.505 250.066 282.619 247.078 281.106 243.364C279.592 239.649 279.567 235.494 281.036 231.762C280.928 231.978 280.82 232.201 280.72 232.425C279.882 234.294 279.42 236.31 279.36 238.358C279.301 240.406 279.646 242.446 280.374 244.361C281.103 246.275 282.201 248.028 283.607 249.518C285.012 251.008 286.697 252.207 288.566 253.045C290.435 253.884 292.45 254.346 294.497 254.405C296.544 254.464 298.583 254.12 300.497 253.391C302.411 252.662 304.163 251.563 305.652 250.157C307.141 248.751 308.339 247.065 309.178 245.195C309.278 244.972 309.37 244.748 309.463 244.517C307.653 248.097 304.533 250.842 300.753 252.181C296.973 253.521 292.822 253.351 289.163 251.708Z" fill="#F55F44"/>
<path opacity="0.1" d="M268.394 259.246C268.394 259.246 284.718 292.386 330.795 273.118L320.071 256.294L301.066 249.465L268.394 259.246Z" fill="black"/>
<path d="M268.394 258.752C268.394 258.752 284.718 291.893 330.795 272.625L320.071 255.8L301.066 248.972L268.394 258.752Z" fill="#F55F44"/>
<path d="M280.974 246.683C291.02 245.892 301.112 245.892 311.157 246.683C311.157 246.683 288.863 248.756 280.974 246.683Z" fill="#333333"/>
<path d="M298.269 216.926C297.494 216.897 296.719 216.957 295.958 217.103H296.551C299.073 217.184 301.475 218.193 303.298 219.939C305.12 221.684 306.234 224.041 306.425 226.557C306.616 229.074 305.871 231.573 304.333 233.573C302.795 235.574 300.572 236.935 298.092 237.396C300.805 237.42 303.417 236.366 305.353 234.463C307.289 232.561 308.39 229.968 308.415 227.253C308.439 224.539 307.385 221.926 305.484 219.989C303.583 218.052 300.99 216.95 298.277 216.926H298.269Z" fill="#F55F44"/>
<path d="M257.231 301.219C259.222 301.219 260.836 298.193 260.836 294.46C260.836 290.727 259.222 287.7 257.231 287.7C255.24 287.7 253.625 290.727 253.625 294.46C253.625 298.193 255.24 301.219 257.231 301.219Z" fill="#FDA57D"/>
<path d="M334.724 301.219C336.715 301.219 338.329 298.193 338.329 294.46C338.329 290.727 336.715 287.7 334.724 287.7C332.732 287.7 331.118 290.727 331.118 294.46C331.118 298.193 332.732 301.219 334.724 301.219Z" fill="#FDA57D"/>
<path d="M265.951 259.731L273.509 255.831L275.211 262.082L270.581 265.234L265.951 259.731Z" fill="#F55F44"/>
<g opacity="0.5">
<path opacity="0.5" d="M296.574 179.029C345.882 179.029 385.854 139.04 385.854 89.7113C385.854 40.3822 345.882 0.393064 296.574 0.393064C247.266 0.393064 207.295 40.3822 207.295 89.7113C207.295 139.04 247.266 179.029 296.574 179.029Z" fill="url(#paint2_linear)"/>
</g>
<path d="M296.574 176.656C344.84 176.656 383.966 137.512 383.966 89.2257C383.966 40.9395 344.84 1.79577 296.574 1.79577C248.309 1.79577 209.182 40.9395 209.182 89.2257C209.182 137.512 248.309 176.656 296.574 176.656Z" fill="#F5F5F5"/>
<path d="M262.485 90.0041C262.485 90.0041 252.578 138.837 247.17 136.131C247.17 136.131 299.324 181.203 345.378 136.131C345.378 136.131 337.266 101.719 325.556 90.0041H262.485Z" fill="#333333"/>
<path d="M296.821 176.918C313.898 176.946 330.606 171.944 344.862 162.536C341.642 144.933 329.385 143.923 329.385 143.923H261.807C261.807 143.923 250.251 144.871 246.63 161.072C261.324 171.412 278.856 176.947 296.821 176.918Z" fill="#009EFF"/>
<path d="M295.896 126.058C317.293 126.058 334.639 108.705 334.639 87.2989C334.639 65.8928 317.293 48.5397 295.896 48.5397C274.499 48.5397 257.154 65.8928 257.154 87.2989C257.154 108.705 274.499 126.058 295.896 126.058Z" fill="#333333"/>
<path opacity="0.1" d="M282.284 122.451H309.316V144.085C309.316 147.667 307.896 151.101 305.367 153.636C302.838 156.171 299.407 157.597 295.827 157.604C292.243 157.604 288.806 156.179 286.272 153.644C283.738 151.109 282.314 147.671 282.314 144.085V122.451H282.284Z" fill="black"/>
<path d="M284.864 121.449H306.735C307.42 121.449 308.076 121.721 308.56 122.206C309.044 122.69 309.316 123.346 309.316 124.031V143.083C309.316 146.665 307.896 150.1 305.367 152.634C302.838 155.169 299.407 156.596 295.827 156.602C292.243 156.602 288.806 155.177 286.272 152.642C283.738 150.107 282.314 146.669 282.314 143.083V124.024C282.316 123.345 282.585 122.695 283.062 122.214C283.539 121.732 284.187 121.457 284.864 121.449Z" fill="#BE7C5E"/>
<path opacity="0.1" d="M282.338 132.663C291.05 135.921 300.64 135.948 309.37 132.74V129.419H282.338V132.663Z" fill="black"/>
<path d="M295.896 134.467C317.293 134.467 334.639 117.114 334.639 95.7074C334.639 74.3013 317.293 56.9482 295.896 56.9482C274.499 56.9482 257.154 74.3013 257.154 95.7074C257.154 117.114 274.499 134.467 295.896 134.467Z" fill="#BE7C5E"/>
<path d="M258.864 80.9868H332.744C332.744 80.9868 326.434 51.1447 298.508 53.0483C270.581 54.952 258.864 80.9868 258.864 80.9868Z" fill="#333333"/>
<path d="M257.955 100.817C259.946 100.817 261.56 97.7911 261.56 94.0581C261.56 90.3251 259.946 87.2989 257.955 87.2989C255.964 87.2989 254.349 90.3251 254.349 94.0581C254.349 97.7911 255.964 100.817 257.955 100.817Z" fill="#BE7C5E"/>
<path d="M333.637 100.817C335.628 100.817 337.243 97.7911 337.243 94.0581C337.243 90.3251 335.628 87.2989 333.637 87.2989C331.646 87.2989 330.032 90.3251 330.032 94.0581C330.032 97.7911 331.646 100.817 333.637 100.817Z" fill="#BE7C5E"/>
<path opacity="0.1" d="M258.864 81.9887H332.744C332.744 81.9887 326.434 52.1466 298.508 54.0503C270.581 55.9539 258.864 81.9887 258.864 81.9887Z" fill="black"/>
<g opacity="0.5">
<path opacity="0.5" d="M509.4 178.636C558.708 178.636 598.68 138.647 598.68 89.3182C598.68 39.9891 558.708 0 509.4 0C460.092 0 420.12 39.9891 420.12 89.3182C420.12 138.647 460.092 178.636 509.4 178.636Z" fill="url(#paint3_linear)"/>
</g>
<path d="M509.57 176.17C557.835 176.17 596.962 137.026 596.962 88.7402C596.962 40.4539 557.835 1.31022 509.57 1.31022C461.304 1.31022 422.177 40.4539 422.177 88.7402C422.177 137.026 461.304 176.17 509.57 176.17Z" fill="#F5F5F5"/>
<path d="M509.647 176.525C526.724 176.553 543.432 171.551 557.688 162.143C554.46 144.532 542.211 143.523 542.211 143.523H474.64C474.64 143.523 463.085 144.471 459.464 160.671C474.154 171.012 491.684 176.55 509.647 176.525Z" fill="#009EFF"/>
<path d="M508.73 129.103C532.029 129.103 550.916 110.207 550.916 86.8982C550.916 63.5893 532.029 44.6938 508.73 44.6938C485.431 44.6938 466.544 63.5893 466.544 86.8982C466.544 110.207 485.431 129.103 508.73 129.103Z" fill="#72351C"/>
<path opacity="0.1" d="M495.109 122.05H522.142V143.684C522.145 145.462 521.798 147.222 521.12 148.865C520.442 150.508 519.448 152.001 518.193 153.258C516.938 154.516 515.447 155.514 513.806 156.195C512.165 156.876 510.406 157.226 508.63 157.226C505.046 157.226 501.609 155.802 499.075 153.267C496.541 150.731 495.117 147.293 495.117 143.708V122.05H495.109Z" fill="black"/>
<path d="M497.667 121.049H519.538C520.223 121.049 520.879 121.321 521.363 121.805C521.847 122.289 522.119 122.946 522.119 123.63V142.683C522.119 146.268 520.695 149.706 518.161 152.241C515.627 154.777 512.19 156.201 508.607 156.201C505.023 156.201 501.586 154.777 499.052 152.241C496.518 149.706 495.094 146.268 495.094 142.683V123.63C495.094 122.946 495.366 122.289 495.85 121.805C496.334 121.321 496.99 121.049 497.675 121.049H497.667Z" fill="#FDA57D"/>
<path opacity="0.1" d="M495.14 132.262C503.852 135.52 513.443 135.547 522.173 132.34V129.018H495.14V132.262Z" fill="black"/>
<path d="M508.73 134.074C530.127 134.074 547.472 116.721 547.472 95.3144C547.472 73.9082 530.127 56.5551 508.73 56.5551C487.333 56.5551 469.987 73.9082 469.987 95.3144C469.987 116.721 487.333 134.074 508.73 134.074Z" fill="#FDA57D"/>
<path opacity="0.1" d="M481.135 60.0619C481.135 60.0619 497.459 93.2026 543.536 73.9347L532.812 57.11L513.807 50.2815L481.135 60.0619Z" fill="black"/>
<path d="M481.135 59.5763C481.135 59.5763 497.459 92.7171 543.536 73.4492L532.812 56.6245L513.807 49.7959L481.135 59.5763Z" fill="#72351C"/>
<path d="M480.988 57.3335C482.089 53.9245 483.991 50.8295 486.535 48.3084C494.154 40.7709 506.65 39.1832 513.059 30.582C513.408 31.1907 513.624 31.8657 513.696 32.5635C513.767 33.2612 513.691 33.9662 513.474 34.6329C513.256 35.2995 512.901 35.9132 512.431 36.4341C511.962 36.955 511.389 37.3716 510.748 37.6572C516.911 37.6186 524.006 37.0791 527.473 32.0232C528.331 34.0211 528.605 36.2216 528.263 38.3689C527.92 40.5163 526.976 42.5224 525.54 44.1543C530.978 44.4009 536.787 48.0926 537.141 53.5339C537.373 57.1563 535.108 60.5859 532.126 62.6669C529.145 64.7478 525.555 65.6804 522.011 66.4511C511.673 68.7632 474.24 78.3278 480.988 57.3335Z" fill="#72351C"/>
<path d="M547.472 95.6535H546.448L526.464 113.465C507.204 104.447 493.076 113.465 493.076 113.465L472.121 96.4011L470.01 96.6631C470.296 106.836 474.57 116.489 481.909 123.536C489.248 130.584 499.063 134.461 509.235 134.33C519.406 134.2 529.119 130.072 536.275 122.839C543.43 115.605 547.455 105.846 547.48 95.6689L547.472 95.6535ZM508.676 120.278C501.142 120.278 495.032 118.736 495.032 116.864C495.032 114.991 501.142 113.449 508.676 113.449C516.21 113.449 522.319 114.991 522.319 116.864C522.319 118.736 516.21 120.278 508.668 120.278H508.676Z" fill="#72351C"/>
<path d="M469.972 102.035C471.963 102.035 473.577 99.0088 473.577 95.2758C473.577 91.5429 471.963 88.5167 469.972 88.5167C467.981 88.5167 466.366 91.5429 466.366 95.2758C466.366 99.0088 467.981 102.035 469.972 102.035Z" fill="#FDA57D"/>
<path d="M547.465 102.035C549.456 102.035 551.07 99.0088 551.07 95.2758C551.07 91.5429 549.456 88.5167 547.465 88.5167C545.473 88.5167 543.859 91.5429 543.859 95.2758C543.859 99.0088 545.473 102.035 547.465 102.035Z" fill="#FDA57D"/>
<g opacity="0.5">
<path opacity="0.5" d="M89.2796 371.963C138.587 371.963 178.559 331.974 178.559 282.645C178.559 233.315 138.587 193.326 89.2796 193.326C39.9718 193.326 0 233.315 0 282.645C0 331.974 39.9718 371.963 89.2796 371.963Z" fill="url(#paint4_linear)"/>
</g>
<path d="M89.4491 369.504C137.715 369.504 176.841 330.36 176.841 282.074C176.841 233.788 137.715 194.644 89.4491 194.644C41.1838 194.644 2.05695 233.788 2.05695 282.074C2.05695 330.36 41.1838 369.504 89.4491 369.504Z" fill="#F5F5F5"/>
<path d="M89.5261 369.851C106.601 369.878 123.306 364.876 137.559 355.469C134.339 337.866 122.082 336.857 122.082 336.857H54.4814C54.4814 336.857 42.9257 337.805 39.3049 354.005C54.0069 364.351 71.5513 369.887 89.5261 369.851Z" fill="#009EFF"/>
<path d="M88.6017 322.437C111.9 322.437 130.788 303.541 130.788 280.232C130.788 256.923 111.9 238.028 88.6017 238.028C65.3029 238.028 46.4155 256.923 46.4155 280.232C46.4155 303.541 65.3029 322.437 88.6017 322.437Z" fill="#333333"/>
<path opacity="0.1" d="M74.989 315.384H102.022V337.018C102.022 340.604 100.598 344.042 98.064 346.577C95.5299 349.113 92.093 350.537 88.5092 350.537C84.9255 350.537 81.4885 349.113 78.9544 346.577C76.4204 344.042 74.9967 340.604 74.9967 337.018V315.384H74.989Z" fill="black"/>
<path d="M77.5698 314.383H99.441C100.125 314.383 100.782 314.655 101.266 315.139C101.75 315.623 102.022 316.28 102.022 316.964V336.032C102.022 339.617 100.598 343.056 98.064 345.591C95.5299 348.126 92.093 349.55 88.5092 349.55C86.7341 349.551 84.9762 349.202 83.3358 348.523C81.6955 347.845 80.205 346.849 78.9495 345.594C77.6939 344.338 76.6979 342.848 76.0183 341.207C75.3388 339.566 74.989 337.808 74.989 336.032V316.957C74.989 316.272 75.2609 315.615 75.7449 315.131C76.2289 314.647 76.8853 314.375 77.5698 314.375V314.383Z" fill="#FDB797"/>
<path opacity="0.1" d="M75.043 325.596C83.755 328.854 93.3453 328.881 102.076 325.674V322.329H75.043V325.596Z" fill="black"/>
<path d="M88.6017 327.408C109.999 327.408 127.344 310.055 127.344 288.648C127.344 267.242 109.999 249.889 88.6017 249.889C67.2048 249.889 49.8591 267.242 49.8591 288.648C49.8591 310.055 67.2048 327.408 88.6017 327.408Z" fill="#FDB797"/>
<path opacity="0.1" d="M61.0143 253.388C61.0143 253.388 77.3387 286.529 123.415 267.261L112.692 250.436L93.6862 243.608L61.0143 253.388Z" fill="black"/>
<path d="M61.0143 252.903C61.0143 252.903 77.3387 286.043 123.415 266.775L112.692 249.951L93.6862 243.122L61.0143 252.903Z" fill="#333333"/>
<path d="M60.8679 250.652C61.9685 247.243 63.8707 244.148 66.4147 241.627C74.0338 234.089 86.5294 232.502 92.939 223.901C93.2872 224.509 93.504 225.184 93.5754 225.882C93.6468 226.58 93.5712 227.285 93.3534 227.951C93.1356 228.618 92.7805 229.232 92.3111 229.753C91.8416 230.274 91.2682 230.69 90.6278 230.976C96.7909 230.937 103.886 230.398 107.353 225.342C108.211 227.34 108.485 229.54 108.142 231.688C107.8 233.835 106.856 235.841 105.419 237.473C110.858 237.719 116.667 241.411 117.021 246.852C117.252 250.475 114.987 253.905 112.006 255.985C109.025 258.066 105.427 259.014 101.883 259.8C91.5446 262.097 54.1194 271.662 60.8679 250.652Z" fill="#333333"/>
<path d="M49.8437 295.369C51.8349 295.369 53.4491 292.343 53.4491 288.61C53.4491 284.877 51.8349 281.851 49.8437 281.851C47.8525 281.851 46.2383 284.877 46.2383 288.61C46.2383 292.343 47.8525 295.369 49.8437 295.369Z" fill="#FDB797"/>
<path d="M127.337 295.369C129.328 295.369 130.942 292.343 130.942 288.61C130.942 284.877 129.328 281.851 127.337 281.851C125.345 281.851 123.731 284.877 123.731 288.61C123.731 292.343 125.345 295.369 127.337 295.369Z" fill="#FDB797"/>
<g opacity="0.5">
<path opacity="0.5" d="M512.728 381.866C562.036 381.866 602.008 341.877 602.008 292.548C602.008 243.219 562.036 203.23 512.728 203.23C463.42 203.23 423.448 243.219 423.448 292.548C423.448 341.877 463.42 381.866 512.728 381.866Z" fill="url(#paint5_linear)"/>
</g>
<path d="M512.728 379.493C560.993 379.493 600.12 340.349 600.12 292.063C600.12 243.776 560.993 204.633 512.728 204.633C464.463 204.633 425.336 243.776 425.336 292.063C425.336 340.349 464.463 379.493 512.728 379.493Z" fill="#F5F5F5"/>
<path d="M512.975 379.755C530.052 379.783 546.76 374.781 561.016 365.373C557.795 347.77 545.539 346.76 545.539 346.76H477.961C477.961 346.76 466.405 347.708 462.784 363.909C477.478 374.249 495.01 379.784 512.975 379.755Z" fill="#009EFF"/>
<path opacity="0.1" d="M498.438 325.288H525.47V346.922C525.47 350.507 524.047 353.946 521.512 356.481C518.978 359.016 515.541 360.44 511.958 360.44C510.183 360.441 508.425 360.093 506.784 359.414C505.144 358.735 503.653 357.739 502.398 356.484C501.142 355.228 500.146 353.738 499.467 352.097C498.787 350.457 498.437 348.698 498.438 346.922V325.288Z" fill="black"/>
<path d="M501.018 324.286H522.889C523.574 324.286 524.23 324.558 524.714 325.042C525.198 325.527 525.47 326.183 525.47 326.868V345.92C525.47 349.506 524.047 352.944 521.512 355.479C518.978 358.014 515.541 359.439 511.958 359.439C510.183 359.44 508.425 359.091 506.784 358.412C505.144 357.733 503.653 356.737 502.398 355.482C501.142 354.226 500.146 352.736 499.467 351.095C498.787 349.455 498.437 347.696 498.438 345.92V326.868C498.438 326.183 498.709 325.527 499.193 325.042C499.677 324.558 500.334 324.286 501.018 324.286Z" fill="#FDB797"/>
<path opacity="0.1" d="M498.491 335.5C507.203 338.758 516.794 338.785 525.524 335.577V332.255H498.491V335.5Z" fill="black"/>
<path d="M512.05 337.311C533.447 337.311 550.793 319.958 550.793 298.552C550.793 277.146 533.447 259.793 512.05 259.793C490.653 259.793 473.308 277.146 473.308 298.552C473.308 319.958 490.653 337.311 512.05 337.311Z" fill="#FDB797"/>
<path d="M474.109 303.654C476.1 303.654 477.714 300.628 477.714 296.895C477.714 293.162 476.1 290.136 474.109 290.136C472.118 290.136 470.503 293.162 470.503 296.895C470.503 300.628 472.118 303.654 474.109 303.654Z" fill="#FDB797"/>
<path d="M549.791 303.654C551.782 303.654 553.397 300.628 553.397 296.895C553.397 293.162 551.782 290.136 549.791 290.136C547.8 290.136 546.186 293.162 546.186 296.895C546.186 300.628 547.8 303.654 549.791 303.654Z" fill="#FDB797"/>
<path d="M501.665 298.737H491.797C489.946 298.737 488.446 300.238 488.446 302.09V303.677C488.446 305.529 489.946 307.03 491.797 307.03H501.665C503.516 307.03 505.017 305.529 505.017 303.677V302.09C505.017 300.238 503.516 298.737 501.665 298.737Z" stroke="#333333" stroke-width="2" stroke-miterlimit="10"/>
<path d="M522.443 307.022H532.311C534.162 307.022 535.662 305.521 535.662 303.67V302.082C535.662 300.23 534.162 298.729 532.311 298.729H522.443C520.592 298.729 519.091 300.23 519.091 302.082V303.67C519.091 305.521 520.592 307.022 522.443 307.022Z" stroke="#333333" stroke-width="2" stroke-miterlimit="10"/>
<path d="M504.385 299.539C504.385 299.539 509.639 296.687 519.407 299.539" stroke="#333333" stroke-width="2" stroke-miterlimit="10"/>
<path d="M538.836 270.459L548.343 292.556C548.343 292.556 559.968 277.897 538.836 270.459Z" fill="#858585"/>
<path d="M535.662 302.883L549.853 290.205" stroke="#333333" stroke-width="2" stroke-linecap="round" stroke-linejoin="round"/>
<path d="M485.279 270.459L475.773 292.556C475.773 292.556 464.148 277.897 485.279 270.459Z" fill="#858585"/>
<path d="M488.446 302.883L474.062 290.205" stroke="#333333" stroke-width="2" stroke-linecap="round" stroke-linejoin="round"/>
<g opacity="0.5">
<path opacity="0.5" d="M89.919 572.757C139.227 572.757 179.199 532.768 179.199 483.439C179.199 434.11 139.227 394.121 89.919 394.121C40.6113 394.121 0.639404 434.11 0.639404 483.439C0.639404 532.768 40.6113 572.757 89.919 572.757Z" fill="url(#paint6_linear)"/>
</g>
<path d="M89.9191 570.383C138.184 570.383 177.311 531.24 177.311 482.953C177.311 434.667 138.184 395.523 89.9191 395.523C41.6537 395.523 2.52686 434.667 2.52686 482.953C2.52686 531.24 41.6537 570.383 89.9191 570.383Z" fill="#F5F5F5"/>
<path d="M138.261 490.815C138.261 523.015 117.26 558.861 91.352 558.861C65.444 558.861 44.4665 523.015 44.4665 490.815C44.4665 458.614 65.4671 442.26 91.3751 442.26C117.283 442.26 138.261 458.622 138.261 490.815Z" fill="#FDD835"/>
<path d="M90.1656 570.653C107.243 570.681 123.951 565.679 138.207 556.272C134.986 538.668 122.73 537.659 122.73 537.659H55.1594C55.1594 537.659 43.6036 538.607 39.9828 554.807C54.6741 565.145 72.204 570.681 90.1656 570.653Z" fill="#009EFF"/>
<path opacity="0.1" d="M75.6362 516.179H102.669V537.813C102.669 541.398 101.245 544.837 98.7112 547.372C96.1771 549.907 92.7401 551.331 89.1564 551.331C85.5726 551.331 82.1357 549.907 79.6016 547.372C77.0675 544.837 75.6439 541.398 75.6439 537.813V516.179H75.6362Z" fill="black"/>
<path d="M78.2169 515.177H100.088C100.773 515.177 101.429 515.449 101.913 515.933C102.397 516.417 102.669 517.074 102.669 517.759V536.811C102.669 540.396 101.245 543.835 98.7112 546.37C96.1771 548.905 92.7401 550.329 89.1564 550.329C85.5726 550.329 82.1357 548.905 79.6016 546.37C77.0675 543.835 75.6439 540.396 75.6439 536.811V517.759C75.6439 517.076 75.9147 516.42 76.397 515.936C76.8794 515.452 77.5338 515.179 78.2169 515.177Z" fill="#FDB797"/>
<path opacity="0.1" d="M75.6901 526.391C84.4021 529.648 93.9923 529.676 102.723 526.468V523.146H75.6901V526.391Z" fill="black"/>
<path d="M89.2488 528.202C110.646 528.202 127.991 510.849 127.991 489.443C127.991 468.037 110.646 450.684 89.2488 450.684C67.8519 450.684 50.5063 468.037 50.5063 489.443C50.5063 510.849 67.8519 528.202 89.2488 528.202Z" fill="#FDB797"/>
<path d="M51.3075 494.545C53.2987 494.545 54.9129 491.519 54.9129 487.786C54.9129 484.053 53.2987 481.027 51.3075 481.027C49.3163 481.027 47.7021 484.053 47.7021 487.786C47.7021 491.519 49.3163 494.545 51.3075 494.545Z" fill="#FDB797"/>
<path d="M126.99 494.545C128.981 494.545 130.595 491.519 130.595 487.786C130.595 484.053 128.981 481.027 126.99 481.027C124.999 481.027 123.384 484.053 123.384 487.786C123.384 491.519 124.999 494.545 126.99 494.545Z" fill="#FDB797"/>
<path opacity="0.1" d="M54.9206 468.418C54.9206 468.418 76.8226 498.406 127.052 488.163C127.052 488.163 132.66 481.335 119.009 460.371C105.358 439.408 67.3469 442.822 54.9206 468.418Z" fill="black"/>
<path d="M54.9206 467.932C54.9206 467.932 76.8226 497.921 127.052 487.678C127.052 487.678 132.66 480.849 119.009 459.886C105.358 438.922 67.3469 442.337 54.9206 467.932Z" fill="#FDD835"/>
<g opacity="0.5">
<path opacity="0.5" d="M302.013 583C351.321 583 391.293 543.011 391.293 493.682C391.293 444.353 351.321 404.364 302.013 404.364C252.705 404.364 212.733 444.353 212.733 493.682C212.733 543.011 252.705 583 302.013 583Z" fill="url(#paint7_linear)"/>
</g>
<path d="M302.19 580.541C350.456 580.541 389.582 541.398 389.582 493.111C389.582 444.825 350.456 405.681 302.19 405.681C253.925 405.681 214.798 444.825 214.798 493.111C214.798 541.398 253.925 580.541 302.19 580.541Z" fill="#F5F5F5"/>
<path d="M350.27 501.728C350.27 530.815 329.385 545.127 302.26 545.127C275.134 545.127 252.061 530.815 252.061 501.728C252.061 472.641 274.048 449.065 301.166 449.065C328.283 449.065 350.27 472.618 350.27 501.728Z" fill="#333333"/>
<path d="M302.26 580.888C319.34 580.918 336.051 575.916 350.308 566.507C347.088 548.904 334.831 547.894 334.831 547.894H267.253C267.253 547.894 255.698 548.842 252.077 565.042C266.768 575.381 284.298 580.916 302.26 580.888Z" fill="#009EFF"/>
<path opacity="0.1" d="M287.73 526.399H314.763V548.033C314.766 549.812 314.418 551.575 313.738 553.22C313.058 554.865 312.061 556.359 310.802 557.617C309.544 558.876 308.05 559.873 306.405 560.552C304.761 561.231 302.999 561.578 301.22 561.574C297.636 561.574 294.199 560.15 291.665 557.615C289.131 555.079 287.707 551.641 287.707 548.056V526.399H287.73Z" fill="black"/>
<path d="M290.303 525.42H312.174C312.859 525.42 313.515 525.692 313.999 526.176C314.483 526.66 314.755 527.317 314.755 528.002V547.054C314.755 548.831 314.405 550.591 313.724 552.232C313.044 553.874 312.046 555.365 310.789 556.621C309.532 557.877 308.04 558.872 306.398 559.55C304.756 560.228 302.996 560.575 301.22 560.572C297.636 560.572 294.199 559.148 291.665 556.613C289.131 554.078 287.707 550.639 287.707 547.054V527.994C287.707 527.309 287.979 526.653 288.463 526.168C288.947 525.684 289.603 525.412 290.288 525.412L290.303 525.42Z" fill="#FDA57D"/>
<path opacity="0.1" d="M287.784 536.634C296.496 539.891 306.086 539.919 314.817 536.711V533.389H287.784V536.634Z" fill="black"/>
<path d="M301.343 538.437C322.74 538.437 340.085 521.084 340.085 499.678C340.085 478.272 322.74 460.919 301.343 460.919C279.946 460.919 262.6 478.272 262.6 499.678C262.6 521.084 279.946 538.437 301.343 538.437Z" fill="#FDA57D"/>
<path opacity="0.1" d="M256.691 502.214C256.691 502.214 280.82 499.285 299.062 475.886C299.062 475.886 323.191 502.46 340.001 499.531C340.001 499.531 349.746 489.289 340.001 479.054C330.255 468.818 322.698 455.894 309.786 457.597C296.875 459.3 281.028 460.032 274.21 466.129C267.392 472.225 256.691 502.214 256.691 502.214Z" fill="black"/>
<path d="M256.691 501.728C256.691 501.728 280.82 498.799 299.062 475.4C299.062 475.4 323.191 501.975 340.001 499.046C340.001 499.046 349.746 488.803 340.001 478.568C330.255 468.333 322.698 455.408 309.786 457.111C296.875 458.815 281.059 459.516 274.241 465.682C267.423 471.847 256.691 501.728 256.691 501.728Z" fill="#333333"/>
<path d="M262.585 506.406C264.576 506.406 266.19 503.38 266.19 499.647C266.19 495.914 264.576 492.888 262.585 492.888C260.594 492.888 258.979 495.914 258.979 499.647C258.979 503.38 260.594 506.406 262.585 506.406Z" fill="#FDA57D"/>
<path d="M340.078 506.406C342.069 506.406 343.683 503.38 343.683 499.647C343.683 495.914 342.069 492.888 340.078 492.888C338.086 492.888 336.472 495.914 336.472 499.647C336.472 503.38 338.086 506.406 340.078 506.406Z" fill="#FDA57D"/>
</g>
<defs>
<linearGradient id="paint0_linear" x1="89.919" y1="183.415" x2="89.919" y2="4.78615" gradientUnits="userSpaceOnUse">
<stop stop-color="#808080" stop-opacity="0.25"/>
<stop offset="0.54" stop-color="#808080" stop-opacity="0.12"/>
<stop offset="1" stop-color="#808080" stop-opacity="0.1"/>
</linearGradient>
<linearGradient id="paint1_linear" x1="68967" y1="87768.5" x2="68967" y2="46366" gradientUnits="userSpaceOnUse">
<stop stop-color="#808080" stop-opacity="0.25"/>
<stop offset="0.54" stop-color="#808080" stop-opacity="0.12"/>
<stop offset="1" stop-color="#808080" stop-opacity="0.1"/>
</linearGradient>
<linearGradient id="paint2_linear" x1="68947.3" y1="41495.8" x2="68947.3" y2="91.4977" gradientUnits="userSpaceOnUse">
<stop stop-color="#808080" stop-opacity="0.25"/>
<stop offset="0.54" stop-color="#808080" stop-opacity="0.12"/>
<stop offset="1" stop-color="#808080" stop-opacity="0.1"/>
</linearGradient>
<linearGradient id="paint3_linear" x1="118489" y1="41402.6" x2="118489" y2="0" gradientUnits="userSpaceOnUse">
<stop stop-color="#808080" stop-opacity="0.25"/>
<stop offset="0.54" stop-color="#808080" stop-opacity="0.12"/>
<stop offset="1" stop-color="#808080" stop-opacity="0.1"/>
</linearGradient>
<linearGradient id="paint4_linear" x1="20693.2" y1="86406.8" x2="20693.2" y2="45004.3" gradientUnits="userSpaceOnUse">
<stop stop-color="#808080" stop-opacity="0.25"/>
<stop offset="0.54" stop-color="#808080" stop-opacity="0.12"/>
<stop offset="1" stop-color="#808080" stop-opacity="0.1"/>
</linearGradient>
<linearGradient id="paint5_linear" x1="119264" y1="88712.2" x2="119264" y2="47309.7" gradientUnits="userSpaceOnUse">
<stop stop-color="#808080" stop-opacity="0.25"/>
<stop offset="0.54" stop-color="#808080" stop-opacity="0.12"/>
<stop offset="1" stop-color="#808080" stop-opacity="0.1"/>
</linearGradient>
<linearGradient id="paint6_linear" x1="20842.1" y1="133148" x2="20842.1" y2="91745.2" gradientUnits="userSpaceOnUse">
<stop stop-color="#808080" stop-opacity="0.25"/>
<stop offset="0.54" stop-color="#808080" stop-opacity="0.12"/>
<stop offset="1" stop-color="#808080" stop-opacity="0.1"/>
</linearGradient>
<linearGradient id="paint7_linear" x1="70213.3" y1="135532" x2="70213.3" y2="94129.5" gradientUnits="userSpaceOnUse">
<stop stop-color="#808080" stop-opacity="0.25"/>
<stop offset="0.54" stop-color="#808080" stop-opacity="0.12"/>
<stop offset="1" stop-color="#808080" stop-opacity="0.1"/>
</linearGradient>
<clipPath id="clip0">
<rect width="602" height="583" fill="white"/>
</clipPath>
</defs>
</svg>
